<?xml version="1.0" ?><!DOCTYPE svg  PUBLIC '-//W3C//DTD SVG 1.1//EN'  'http://www.w3.org/Graphics/SVG/1.1/DTD/svg11.dtd'><svg enable-background="new 0 0 100 100" height="100px" id="Layer_1" version="1.1" viewBox="0 0 100 100" width="100px" xml:space="preserve" xmlns="http://www.w3.org/2000/svg" xmlns:xlink="http://www.w3.org/1999/xlink"><path d="M49.999,59.055c-9.942,0-18.031-8.09-18.031-18.033c0-9.943,8.089-18.033,18.031-18.033  c9.943,0,18.033,8.09,18.033,18.033C68.032,50.965,59.942,59.055,49.999,59.055z M49.999,26.445c-8.036,0-14.575,6.54-14.575,14.577  s6.539,14.576,14.575,14.576c8.038,0,14.576-6.539,14.576-14.576S58.037,26.445,49.999,26.445z" fill="#211915"/><path d="M50,96.543c0,0,20.111-20.064,27.784-27.736c15.346-15.346,15.346-40.224,0-55.569  c-15.344-15.346-40.225-15.346-55.568,0c-15.345,15.345-15.345,40.223,0,55.569C29.888,76.479,50,96.543,50,96.543 M50,57.326  c-9.004,0-16.305-7.301-16.305-16.305c0-9.004,7.3-16.303,16.305-16.303c9.004,0,16.304,7.299,16.304,16.303  C66.304,50.025,59.004,57.326,50,57.326" fill="#FF9700"/><path d="M50,98.984l-1.22-1.217c0,0-20.114-20.066-27.786-27.74C13.245,62.279,8.979,51.979,8.979,41.022  c0-10.957,4.267-21.258,12.015-29.006C28.741,4.267,39.042,0,50,0c10.957,0,21.259,4.268,29.006,12.017  c7.749,7.748,12.016,18.049,12.016,29.006c0,10.957-4.267,21.257-12.016,29.005c-7.672,7.674-27.785,27.74-27.785,27.74L50,98.984z   M50,3.457c-10.035,0-19.468,3.908-26.562,11.003c-7.096,7.095-11.003,16.528-11.003,26.562c0,10.035,3.907,19.466,11.003,26.562  C29.971,74.117,45.529,89.643,50,94.104c4.471-4.461,20.027-19.986,26.562-26.52c7.095-7.096,11.002-16.527,11.002-26.562  c0-10.034-3.907-19.467-11.002-26.562C69.467,7.364,60.034,3.457,50,3.457z M50,59.055c-9.943,0-18.033-8.09-18.033-18.034  c0-9.942,8.09-18.031,18.033-18.031c9.942,0,18.032,8.089,18.032,18.031C68.032,50.965,59.942,59.055,50,59.055z M50,26.446  c-8.037,0-14.577,6.539-14.577,14.575c0,8.038,6.54,14.577,14.577,14.577s14.575-6.539,14.575-14.577  C64.575,32.985,58.037,26.446,50,26.446z" fill="#211915"/><path d="M17.998,41.022h-3.457c0-19.552,15.907-35.459,35.46-35.459v3.457C32.355,9.019,17.998,23.375,17.998,41.022  z" fill="#FFFFFF"/></svg>